<?xml version="1.0" encoding="utf-8"?><!-- Uploaded to: SVG Repo, www.svgrepo.com, Generator: SVG Repo Mixer Tools -->
<svg fill="#000000" width="800px" height="800px" viewBox="0 0 24 24" id="mcdonalds" data-name="Flat Color" xmlns="http://www.w3.org/2000/svg" class="icon flat-color"><path id="primary" d="M21,22a1,1,0,0,1-1-1C20,7.05,17.83,4,17,4c-1.28,0-3.41,3.74-4,14.06a1,1,0,0,1-2,0C10.41,7.74,8.28,4,7,4,6.17,4,4,7.05,4,21a1,1,0,0,1-2,0C2,8.39,3.68,2,7,2c2.64,0,4.14,3.56,5,7.69C12.86,5.56,14.36,2,17,2c3.32,0,5,6.39,5,19A1,1,0,0,1,21,22Z" style="fill: rgb(0, 0, 0);"></path></svg>